# xmcd
#
# Track frame offsets:
# 150
# 7870
# 15680
# 30972
# 35705
# 47475
# 65520
# 87757
# 103850
# 108567
# 126052
# 135960
# 146900
# 151245
# 157635
# 169245
# 185725
# 190350
# 204045
# 212430
# 225710
# 232830
# 240310
#
# Disc length: 3344 seconds
#
#
# Revision: 0
# Processed by: cddbd v1.5.1PL0 Copyright (c) Steve Scherf et al.
# Submitted via: FreeRIP 2.51 
#
DISCID=1c0d0e17
DTITLE=Dean Shostak - Colonial Fair
DYEAR=1999
DGENRE=Country
TTITLE0=Welcome to the Fair
TTITLE1=Simple Simon
TTITLE2=Aiken Drum
TTITLE3=Fiddle Riddle Number 1
TTITLE4=The Swapping Song
TTITLE5=God Save the King
TTITLE6=Mother Goose Medley
TTITLE7=Johnny's So Long at the Fair
TTITLE8=Fiddle Riddle Number 2
TTITLE9=Frere Jacques
TTITLE10=Yankee Doodle
TTITLE11=Street Cries
TTITLE12=Fiddle Riddle Number 3
TTITLE13=Michael Finnigin
TTITLE14=Old King Cole
TTITLE15=The Old Man Who Lived in the Woods
TTITLE16=Fiddle Riddle Number 4
TTITLE17=Paper of Pins
TTITLE18=English Country Garden
TTITLE19=English Fiddler
TTITLE20=Irish Fiddler
TTITLE21=Scottish Fiddler
TTITLE22=The Grand Finale
EXTD=
EXTT0=
EXTT1=
EXTT2=
EXTT3=
EXTT4=
EXTT5=
EXTT6=
EXTT7=
EXTT8=
EXTT9=
EXTT10=
EXTT11=
EXTT12=
EXTT13=
EXTT14=
EXTT15=
EXTT16=
EXTT17=
EXTT18=
EXTT19=
EXTT20=
EXTT21=
EXTT22=
PLAYORDER=
